<svg width="34" height="34" viewBox="0 0 34 34" fill="none" xmlns="http://www.w3.org/2000/svg">
<path d="M33.4574 30.7446H0.542553C0.242919 30.7446 0 30.9875 0 31.2872C0 31.5868 0.242919 31.8297 0.542553 31.8297H33.4574C33.7572 31.8297 34 31.5868 34 31.2872C34 30.9875 33.7572 30.7446 33.4574 30.7446Z" fill="white"/>
<path d="M33.4574 32.9148H0.542553C0.242919 32.9148 0 33.1577 0 33.4573C0 33.757 0.242919 33.9999 0.542553 33.9999H33.4574C33.7572 33.9999 34 33.757 34 33.4573C34 33.1577 33.7572 32.9148 33.4574 32.9148Z" fill="white"/>
<path d="M33.4574 2.17021H31.6489V1.62766C31.6489 0.730132 30.9187 0 30.0213 0C29.1238 0 28.3936 0.730132 28.3936 1.62766V2.17021H22.9681V1.62766C22.9681 0.730132 22.2379 0 21.3404 0C20.443 0 19.7128 0.730132 19.7128 1.62766V2.17021H14.2872V1.62766C14.2872 0.730132 13.5571 0 12.6596 0C11.762 0 11.0319 0.730132 11.0319 1.62766V2.17021H5.60638V1.62766C5.60638 0.730132 4.87625 0 3.97872 0C3.0812 0 2.35106 0.730132 2.35106 1.62766V2.17021H0.542553C0.242919 2.17021 0 2.41313 0 2.71277V29.117C0 29.4167 0.242919 29.6596 0.542553 29.6596H33.4574C33.7572 29.6596 34 29.4167 34 29.117V2.71277C34 2.41313 33.7572 2.17021 33.4574 2.17021ZM29.4787 1.62766C29.4787 1.32846 29.7221 1.08511 30.0213 1.08511C30.3205 1.08511 30.5638 1.32846 30.5638 1.62766V3.79787C30.5638 4.09707 30.3205 4.34043 30.0213 4.34043C29.7221 4.34043 29.4787 4.09707 29.4787 3.79787V1.62766ZM20.7979 1.62766C20.7979 1.32846 21.0412 1.08511 21.3404 1.08511C21.6396 1.08511 21.883 1.32846 21.883 1.62766V3.79787C21.883 4.09707 21.6396 4.34043 21.3404 4.34043C21.0412 4.34043 20.7979 4.09707 20.7979 3.79787V1.62766ZM12.117 1.62766C12.117 1.32846 12.3604 1.08511 12.6596 1.08511C12.9588 1.08511 13.2021 1.32846 13.2021 1.62766V3.79787C13.2021 4.09707 12.9588 4.34043 12.6596 4.34043C12.3604 4.34043 12.117 4.09707 12.117 3.79787V1.62766ZM3.43617 1.62766C3.43617 1.32846 3.67952 1.08511 3.97872 1.08511C4.27792 1.08511 4.52128 1.32846 4.52128 1.62766V3.79787C4.52128 4.09707 4.27792 4.34043 3.97872 4.34043C3.67952 4.34043 3.43617 4.09707 3.43617 3.79787V1.62766ZM2.35106 3.25532V3.79787C2.35106 4.6954 3.0812 5.42553 3.97872 5.42553C4.87625 5.42553 5.60638 4.6954 5.60638 3.79787V3.25532H11.0319V3.79787C11.0319 4.6954 11.762 5.42553 12.6596 5.42553C13.5571 5.42553 14.2872 4.6954 14.2872 3.79787V3.25532H19.7128V3.79787C19.7128 4.6954 20.443 5.42553 21.3404 5.42553C22.2379 5.42553 22.9681 4.6954 22.9681 3.79787V3.25532H28.3936V3.79787C28.3936 4.6954 29.1238 5.42553 30.0213 5.42553C30.9187 5.42553 31.6489 4.6954 31.6489 3.79787V3.25532H32.9149V8.84723H1.08511V3.25532H2.35106ZM1.08511 28.5745V9.93234H32.9149V28.5745H1.08511Z" fill="white"/>
<path d="M29.8046 16.4067H27.6344C27.3346 16.4067 27.0918 16.6497 27.0918 16.9493C27.0918 17.2489 27.3346 17.4918 27.6344 17.4918H29.8046C30.1043 17.4918 30.3471 17.2489 30.3471 16.9493C30.3471 16.6497 30.1043 16.4067 29.8046 16.4067Z" fill="white"/>
<path d="M23.9452 16.4067H21.775C21.4753 16.4067 21.2324 16.6497 21.2324 16.9493C21.2324 17.2489 21.4753 17.4918 21.775 17.4918H23.9452C24.2449 17.4918 24.4877 17.2489 24.4877 16.9493C24.4877 16.6497 24.2449 16.4067 23.9452 16.4067Z" fill="white"/>
<path d="M18.0848 16.4067H15.9146C15.615 16.4067 15.3721 16.6497 15.3721 16.9493C15.3721 17.2489 15.615 17.4918 15.9146 17.4918H18.0848C18.3845 17.4918 18.6274 17.2489 18.6274 16.9493C18.6274 16.6497 18.3845 16.4067 18.0848 16.4067Z" fill="white"/>
<path d="M12.2255 16.4067H10.0552C9.75561 16.4067 9.5127 16.6497 9.5127 16.9493C9.5127 17.2489 9.75561 17.4918 10.0552 17.4918H12.2255C12.5251 17.4918 12.768 17.2489 12.768 16.9493C12.768 16.6497 12.5251 16.4067 12.2255 16.4067Z" fill="white"/>
<path d="M6.36609 16.4067H4.19587C3.89624 16.4067 3.65332 16.6497 3.65332 16.9493C3.65332 17.2489 3.89624 17.4918 4.19587 17.4918H6.36609C6.66572 17.4918 6.90864 17.2489 6.90864 16.9493C6.90864 16.6497 6.66572 16.4067 6.36609 16.4067Z" fill="white"/>
<path d="M23.9452 20.3132H21.775C21.4753 20.3132 21.2324 20.5562 21.2324 20.8558C21.2324 21.1554 21.4753 21.3983 21.775 21.3983H23.9452C24.2449 21.3983 24.4877 21.1554 24.4877 20.8558C24.4877 20.5562 24.2449 20.3132 23.9452 20.3132Z" fill="white"/>
<path d="M18.0848 20.3132H15.9146C15.615 20.3132 15.3721 20.5562 15.3721 20.8558C15.3721 21.1554 15.615 21.3983 15.9146 21.3983H18.0848C18.3845 21.3983 18.6274 21.1554 18.6274 20.8558C18.6274 20.5562 18.3845 20.3132 18.0848 20.3132Z" fill="white"/>
<path d="M12.2255 20.3132H10.0552C9.75561 20.3132 9.5127 20.5562 9.5127 20.8558C9.5127 21.1554 9.75561 21.3983 10.0552 21.3983H12.2255C12.5251 21.3983 12.768 21.1554 12.768 20.8558C12.768 20.5562 12.5251 20.3132 12.2255 20.3132Z" fill="white"/>
<path d="M6.36609 20.3132H4.19587C3.89624 20.3132 3.65332 20.5562 3.65332 20.8558C3.65332 21.1554 3.89624 21.3983 4.19587 21.3983H6.36609C6.66572 21.3983 6.90864 21.1554 6.90864 20.8558C6.90864 20.5562 6.66572 20.3132 6.36609 20.3132Z" fill="white"/>
<path d="M23.9452 24.2195H21.775C21.4753 24.2195 21.2324 24.4624 21.2324 24.762C21.2324 25.0617 21.4753 25.3046 21.775 25.3046H23.9452C24.2449 25.3046 24.4877 25.0617 24.4877 24.762C24.4877 24.4624 24.2449 24.2195 23.9452 24.2195Z" fill="white"/>
<path d="M29.8046 20.3132H27.6344C27.3346 20.3132 27.0918 20.5562 27.0918 20.8558C27.0918 21.1554 27.3346 21.3983 27.6344 21.3983H29.8046C30.1043 21.3983 30.3471 21.1554 30.3471 20.8558C30.3471 20.5562 30.1043 20.3132 29.8046 20.3132Z" fill="white"/>
<path d="M29.8046 24.2195H27.6344C27.3346 24.2195 27.0918 24.4624 27.0918 24.762C27.0918 25.0617 27.3346 25.3046 27.6344 25.3046H29.8046C30.1043 25.3046 30.3471 25.0617 30.3471 24.762C30.3471 24.4624 30.1043 24.2195 29.8046 24.2195Z" fill="white"/>
<path d="M18.0848 24.2195H15.9146C15.615 24.2195 15.3721 24.4624 15.3721 24.762C15.3721 25.0617 15.615 25.3046 15.9146 25.3046H18.0848C18.3845 25.3046 18.6274 25.0617 18.6274 24.762C18.6274 24.4624 18.3845 24.2195 18.0848 24.2195Z" fill="white"/>
<path d="M12.2255 24.2195H10.0552C9.75561 24.2195 9.5127 24.4624 9.5127 24.762C9.5127 25.0617 9.75561 25.3046 10.0552 25.3046H12.2255C12.5251 25.3046 12.768 25.0617 12.768 24.762C12.768 24.4624 12.5251 24.2195 12.2255 24.2195Z" fill="white"/>
<path d="M6.36609 24.2195H4.19587C3.89624 24.2195 3.65332 24.4624 3.65332 24.762C3.65332 25.0617 3.89624 25.3046 4.19587 25.3046H6.36609C6.66572 25.3046 6.90864 25.0617 6.90864 24.762C6.90864 24.4624 6.66572 24.2195 6.36609 24.2195Z" fill="white"/>
<path d="M29.8046 12.5005H27.6344C27.3346 12.5005 27.0918 12.7434 27.0918 13.043C27.0918 13.3427 27.3346 13.5856 27.6344 13.5856H29.8046C30.1043 13.5856 30.3471 13.3427 30.3471 13.043C30.3471 12.7434 30.1043 12.5005 29.8046 12.5005Z" fill="white"/>
<path d="M23.9452 12.5005H21.775C21.4753 12.5005 21.2324 12.7434 21.2324 13.043C21.2324 13.3427 21.4753 13.5856 21.775 13.5856H23.9452C24.2449 13.5856 24.4877 13.3427 24.4877 13.043C24.4877 12.7434 24.2449 12.5005 23.9452 12.5005Z" fill="white"/>
<path d="M18.0848 12.5005H15.9146C15.615 12.5005 15.3721 12.7434 15.3721 13.043C15.3721 13.3427 15.615 13.5856 15.9146 13.5856H18.0848C18.3845 13.5856 18.6274 13.3427 18.6274 13.043C18.6274 12.7434 18.3845 12.5005 18.0848 12.5005Z" fill="white"/>
<path d="M12.2255 12.5005H10.0552C9.75561 12.5005 9.5127 12.7434 9.5127 13.043C9.5127 13.3427 9.75561 13.5856 10.0552 13.5856H12.2255C12.5251 13.5856 12.768 13.3427 12.768 13.043C12.768 12.7434 12.5251 12.5005 12.2255 12.5005Z" fill="white"/>
<path d="M6.36609 12.5005H4.19587C3.89624 12.5005 3.65332 12.7434 3.65332 13.043C3.65332 13.3427 3.89624 13.5856 4.19587 13.5856H6.36609C6.66572 13.5856 6.90864 13.3427 6.90864 13.043C6.90864 12.7434 6.66572 12.5005 6.36609 12.5005Z" fill="white"/>
</svg>
